<?xml version="1.0" encoding="UTF-8"?>
<svg version="1.1" xmlns="http://www.w3.org/2000/svg" width="200" height="200">
<path d="M0 0 C66 0 132 0 200 0 C200 66 200 132 200 200 C134 200 68 200 0 200 C0 134 0 68 0 0 Z " fill="#FDFEFE" transform="translate(0,0)"/>
<path d="M0 0 C1.29532654 0.20574646 1.29532654 0.20574646 2.61682129 0.41564941 C3.49447144 0.58109253 4.37212158 0.74653564 5.27636719 0.91699219 C6.96468355 1.17423071 8.65316137 1.43041175 10.34179688 1.68554688 C12.12783496 1.98333607 13.91329829 2.28458813 15.69824219 2.58886719 C17.15460838 2.83293053 17.15460838 2.83293053 18.64039612 3.08192444 C21.76960442 3.60706275 24.89800664 4.13682902 28.02636719 4.66699219 C30.18802593 5.03142813 32.34972869 5.39560301 34.51147461 5.75952148 C37.74356311 6.30363201 40.97561389 6.8479526 44.20744324 7.39360046 C50.37432768 8.43374055 56.54372277 9.45547541 62.71777344 10.45214844 C64.08595238 10.67438757 65.45411708 10.89671443 66.82226562 11.11914062 C69.24017094 11.51094535 71.65874261 11.89867204 74.078125 12.28125 C92.55286048 15.29651341 92.55286048 15.29651341 96.03662109 18.57202148 C97.73060473 21.77617918 97.81451615 24.43419263 98.00683594 28.04980469 C98.04716446 28.75132156 98.08749298 29.45283844 98.12904358 30.1756134 C98.25564234 32.46389975 98.36084163 34.75253214 98.46386719 37.04199219 C98.54333269 38.61956201 98.62308733 40.1971173 98.703125 41.7746582 C99.17333971 51.46461243 99.4738305 61.15271809 99.52636719 70.85449219 C99.53563232 71.92393066 99.54489746 72.99336914 99.55444336 74.09521484 C99.55033447 75.0766748 99.54622559 76.05813477 99.54199219 77.06933594 C99.53973633 77.91488037 99.53748047 78.7604248 99.53515625 79.6315918 C99.24564363 82.18831602 98.66487641 83.75634909 97.27636719 85.91699219 C94.09878721 88.03537884 92.97306153 88.22644137 89.28710938 88.46362305 C88.26522018 88.53397263 87.24333099 88.6043222 86.19047546 88.67680359 C85.07928848 88.74446426 83.9681015 88.81212494 82.82324219 88.88183594 C81.66713943 88.95976883 80.51103668 89.03770172 79.31990051 89.11799622 C76.84096431 89.2845517 74.36176837 89.44727684 71.88235474 89.60656738 C65.47468499 90.0185553 59.0688817 90.45742031 52.66308594 90.89746094 C51.40781601 90.98323395 50.15254608 91.06900696 48.85923767 91.15737915 C37.96521842 91.91326854 27.10713992 92.88429316 16.25 94.0534668 C-0.56329158 95.83559566 -0.56329158 95.83559566 -4.72363281 92.54199219 C-7.65937184 88.68883471 -7.89652083 86.60494136 -8.11254883 81.79345703 C-8.17253555 80.50386078 -8.23252228 79.21426453 -8.29432678 77.8855896 C-8.35559682 76.46637822 -8.41666211 75.04715798 -8.47753906 73.62792969 C-8.5430768 72.16694846 -8.60891299 70.7059806 -8.67503357 69.24502563 C-8.81318989 66.16998117 -8.9481488 63.09481754 -9.08081055 60.01953125 C-9.24902814 56.12429904 -9.42429437 52.22942569 -9.6019907 48.33461571 C-9.73938734 45.30764384 -9.87321383 42.28052169 -10.00602531 39.25334549 C-10.06922057 37.82074234 -10.13337863 36.38818127 -10.19861031 34.9556694 C-10.35000631 31.6087723 -10.48302051 28.26348041 -10.59060669 24.91473389 C-10.68384007 22.11285594 -10.81275894 19.32667893 -10.97262573 16.52911377 C-11.02903185 15.09287089 -11.0840174 13.65657138 -11.13745117 12.22021484 C-11.20145615 10.93893707 -11.26546112 9.6576593 -11.33140564 8.33755493 C-10.7082163 4.8302276 -10.47429904 4.21433376 -7.99299622 1.95535278 C-4.68263062 -0.10857158 -3.71478513 -0.65956888 0 0 Z " fill="#F8468C" transform="translate(55.7236328125,20.0830078125)"/>
<path d="M0 0 C18.18100684 1.30882515 36.27944031 3.33892256 54.3125 6 C55.39684326 6.15380127 56.48118652 6.30760254 57.59838867 6.46606445 C62.86380457 7.27269024 67.45397169 8.03358675 72 11 C77.07691845 18.61537767 75.05236816 32.62166276 75.0234375 41.57421875 C75.02174561 42.58206421 75.02005371 43.58990967 75.01831055 44.6282959 C75.01393952 47.08553968 75.00780411 49.54276513 75 52 C66.22041529 52.13912397 57.44121091 52.24568229 48.66076374 52.31087303 C44.58342319 52.34216447 40.50683765 52.38459463 36.42993164 52.45263672 C32.49413341 52.51791142 28.55906049 52.55372251 24.62276268 52.56926346 C23.12238331 52.58033564 21.62204292 52.60195836 20.12197304 52.63438034 C8.66661366 52.8720872 8.66661366 52.8720872 4.97567749 50.94073486 C1.26649677 47.11954435 1.14297693 42.01918801 1 37 C0.96413788 36.26828583 0.92827576 35.53657166 0.8913269 34.78268433 C0.7924388 32.53080201 0.73296121 30.28082921 0.68359375 28.02734375 C0.66281265 27.21882462 0.64203156 26.41030548 0.62062073 25.57728577 C0.55598384 23.03076486 0.49664591 20.48415373 0.4375 17.9375 C0.3942328 16.19595475 0.35061612 14.45441814 0.30664062 12.71289062 C0.20039252 8.47534948 0.09889177 4.23771894 0 0 Z " fill="#860677" transform="translate(66,43)"/>
<path d="M0 0 C1.29532654 0.20574646 1.29532654 0.20574646 2.61682129 0.41564941 C3.49447144 0.58109253 4.37212158 0.74653564 5.27636719 0.91699219 C6.96468355 1.17423071 8.65316137 1.43041175 10.34179688 1.68554688 C12.12783496 1.98333607 13.91329829 2.28458813 15.69824219 2.58886719 C17.15460838 2.83293053 17.15460838 2.83293053 18.64039612 3.08192444 C21.76960442 3.60706275 24.89800664 4.13682902 28.02636719 4.66699219 C30.18802593 5.03142813 32.34972869 5.39560301 34.51147461 5.75952148 C37.74356311 6.30363201 40.97561389 6.8479526 44.20744324 7.39360046 C50.37432768 8.43374055 56.54372277 9.45547541 62.71777344 10.45214844 C64.08595238 10.67438757 65.45411708 10.89671443 66.82226562 11.11914062 C69.24017094 11.51094535 71.65874261 11.89867204 74.078125 12.28125 C92.55286048 15.29651341 92.55286048 15.29651341 96.03662109 18.57202148 C97.73060473 21.77617918 97.81451615 24.43419263 98.00683594 28.04980469 C98.04716446 28.75132156 98.08749298 29.45283844 98.12904358 30.1756134 C98.25564234 32.46389975 98.36084163 34.75253214 98.46386719 37.04199219 C98.54333269 38.61956201 98.62308733 40.1971173 98.703125 41.7746582 C99.17333971 51.46461243 99.4738305 61.15271809 99.52636719 70.85449219 C99.53563232 71.92393066 99.54489746 72.99336914 99.55444336 74.09521484 C99.55033447 75.0766748 99.54622559 76.05813477 99.54199219 77.06933594 C99.53973633 77.91488037 99.53748047 78.7604248 99.53515625 79.6315918 C99.24564363 82.18831602 98.66487641 83.75634909 97.27636719 85.91699219 C94.09878721 88.03537884 92.97306153 88.22644137 89.28710938 88.46362305 C88.26522018 88.53397263 87.24333099 88.6043222 86.19047546 88.67680359 C85.07928848 88.74446426 83.9681015 88.81212494 82.82324219 88.88183594 C81.66713943 88.95976883 80.51103668 89.03770172 79.31990051 89.11799622 C76.84096431 89.2845517 74.36176837 89.44727684 71.88235474 89.60656738 C65.47468499 90.0185553 59.0688817 90.45742031 52.66308594 90.89746094 C51.40781601 90.98323395 50.15254608 91.06900696 48.85923767 91.15737915 C37.96521842 91.91326854 27.10713992 92.88429316 16.25 94.0534668 C-0.56329158 95.83559566 -0.56329158 95.83559566 -4.72363281 92.54199219 C-7.65937184 88.68883471 -7.89652083 86.60494136 -8.11254883 81.79345703 C-8.17253555 80.50386078 -8.23252228 79.21426453 -8.29432678 77.8855896 C-8.35559682 76.46637822 -8.41666211 75.04715798 -8.47753906 73.62792969 C-8.5430768 72.16694846 -8.60891299 70.7059806 -8.67503357 69.24502563 C-8.81318989 66.16998117 -8.9481488 63.09481754 -9.08081055 60.01953125 C-9.24902814 56.12429904 -9.42429437 52.22942569 -9.6019907 48.33461571 C-9.73938734 45.30764384 -9.87321383 42.28052169 -10.00602531 39.25334549 C-10.06922057 37.82074234 -10.13337863 36.38818127 -10.19861031 34.9556694 C-10.35000631 31.6087723 -10.48302051 28.26348041 -10.59060669 24.91473389 C-10.68384007 22.11285594 -10.81275894 19.32667893 -10.97262573 16.52911377 C-11.02903185 15.09287089 -11.0840174 13.65657138 -11.13745117 12.22021484 C-11.20145615 10.93893707 -11.26546112 9.6576593 -11.33140564 8.33755493 C-10.7082163 4.8302276 -10.47429904 4.21433376 -7.99299622 1.95535278 C-4.68263062 -0.10857158 -3.71478513 -0.65956888 0 0 Z M-0.72363281 6.91699219 C-1.07357361 25.14621584 -0.4754914 43.32769585 0.21386719 61.54199219 C0.25743347 62.73360962 0.30099976 63.92522705 0.34588623 65.1529541 C0.4720117 68.5667345 0.60525791 71.98015304 0.74121094 75.39355469 C0.77980728 76.44030365 0.81840363 77.48705261 0.85816956 78.56552124 C0.89812546 79.52020294 0.93808136 80.47488464 0.97924805 81.45849609 C1.02921181 82.7186705 1.02921181 82.7186705 1.08018494 84.00430298 C1.07382152 85.92486912 1.07382152 85.92486912 2.27636719 86.91699219 C12.43197086 87.34527414 22.64864982 86.77289406 32.79199219 86.29589844 C34.22392776 86.230808 35.65587383 86.16594801 37.08782959 86.1013031 C40.0593077 85.96641864 43.03066609 85.82921397 46.00195312 85.69018555 C49.77916062 85.51357557 53.55658537 85.34224758 57.33411026 85.17257786 C60.28042303 85.03976261 63.22661783 84.90446438 66.1727829 84.76841545 C67.56478542 84.70436141 68.95681871 84.64097211 70.34888458 84.57831001 C78.3481108 84.21643358 86.30969684 83.73188583 94.27636719 82.91699219 C94.37209592 66.57830681 94.45542985 50.24712809 93.83886719 33.91699219 C93.79963135 32.82725098 93.76039551 31.73750977 93.7199707 30.61474609 C93.70117265 25.60071646 93.70117265 25.60071646 92.27636719 20.91699219 C89.27449789 20.1075534 89.27449789 20.1075534 85.54589844 19.50683594 C84.83738235 19.38122787 84.12886627 19.25561981 83.39888 19.12620544 C81.02663487 18.71084035 78.6521325 18.31170739 76.27636719 17.91699219 C75.45811462 17.7806134 74.63986206 17.64423462 73.79681396 17.50372314 C67.52392566 16.46533807 61.244681 15.46863022 54.96386719 14.47949219 C54.00357605 14.32769501 53.04328491 14.17589783 52.05389404 14.01950073 C45.46256797 12.9777158 38.87000901 11.94401496 32.27636719 10.91699219 C31.49767273 10.79565918 30.71897827 10.67432617 29.91668701 10.54931641 C25.41313392 9.84893252 20.90799086 9.15989962 16.40136719 8.47949219 C15.33490967 8.31586182 14.26845215 8.15223145 13.16967773 7.98364258 C8.49589158 7.28963855 4.01789153 6.71608014 -0.72363281 6.91699219 Z " fill="#1387DB" transform="translate(55.7236328125,20.0830078125)"/>
<path d="M0 0 C11.1759705 0.62112912 22.1477419 2.4871988 33.1875 4.25 C36.19117892 4.72504875 39.19508924 5.19861246 42.19903564 5.67196655 C44.21339096 5.98939453 46.22767339 6.30728535 48.24188232 6.62564087 C54.55220372 7.62136569 60.86560225 8.59325706 67.18359375 9.5390625 C67.95638168 9.65487671 68.72916962 9.77069092 69.52537537 9.89001465 C72.42979125 10.32459585 75.33432455 10.7582889 78.23959351 11.18713379 C80.1834895 11.47413915 82.12691512 11.76432505 84.0703125 12.0546875 C85.15070801 12.21437012 86.23110352 12.37405273 87.34423828 12.53857422 C90 13 90 13 93 14 C94.94799566 17.89599132 94.40803072 22.7097506 94.5625 27 C94.6049585 28.1245459 94.64741699 29.2490918 94.69116211 30.40771484 C95.20099886 45.60023444 95.08904937 60.80132806 95 76 C86.35009215 76.88478054 77.70000511 77.3629898 69.015625 77.75390625 C67.58753937 77.81962069 66.15945923 77.88545467 64.73138428 77.95140076 C61.75296245 78.08833092 58.77446318 78.22339377 55.79589844 78.35717773 C52.02308128 78.52684504 48.25053322 78.7018401 44.47803116 78.87835789 C41.5317464 79.01548829 38.58532043 79.14937549 35.63884735 79.2823925 C34.25007064 79.3455211 32.86134003 79.40967432 31.47266388 79.47497749 C12.0780955 80.3828413 12.0780955 80.3828413 3 80 C1.41523473 78.41523473 1.79014642 76.74249566 1.70288086 74.54150391 C1.66292496 73.5868222 1.62296906 72.6321405 1.58180237 71.64852905 C1.54320602 70.60178009 1.50460968 69.55503113 1.46484375 68.4765625 C1.42177597 67.39525055 1.37870819 66.3139386 1.33433533 65.19985962 C1.19633651 61.67509969 1.06638004 58.15010434 0.9375 54.625 C0.89264465 53.43982788 0.84778931 52.25465576 0.80157471 51.03356934 C0.16048553 34.01646105 -0.32692397 17.03022412 0 0 Z M14 9 C12.31865712 11.35774595 12.31865712 11.35774595 11 14 C9.34183216 14.68753301 7.67540664 15.35561283 6 16 C3.74151929 19.31575494 3.76876422 22.18436855 3.828125 26.12109375 C3.84681641 27.36487793 3.86550781 28.60866211 3.88476562 29.89013672 C3.92071093 31.26015807 3.95920698 32.63011442 4 34 C4.02054443 34.70795715 4.04108887 35.41591431 4.06225586 36.14532471 C4.20392499 40.67810654 4.40091582 45.20618427 4.63476562 49.73510742 C4.71236788 51.30244275 4.78187297 52.87019755 4.84375 54.43823242 C4.93511655 56.74262058 5.05077499 59.04466212 5.171875 61.34765625 C5.19497742 62.04351334 5.21807983 62.73937042 5.24188232 63.45631409 C5.53145115 68.23027375 6.57040694 70.68569288 10 74 C13.26945676 74.75063914 13.26945676 74.75063914 17 74.63110352 C18.04462402 74.64183647 18.04462402 74.64183647 19.11035156 74.65278625 C21.40757267 74.66966643 23.70284011 74.650278 26 74.62890625 C27.59895997 74.62973503 29.19791987 74.63219475 30.796875 74.63621521 C34.14609457 74.63907271 37.49464521 74.62437774 40.84375 74.59692383 C45.1348197 74.56284027 49.42469335 74.56885922 53.71582031 74.5875864 C57.01702832 74.59815984 60.31795845 74.58921563 63.61914062 74.57420158 C65.20116348 74.56902178 66.78321538 74.56949916 68.36523438 74.57574654 C70.57745659 74.58120326 72.78797232 74.56081292 75 74.53344727 C76.258125 74.52724869 77.51625 74.52105011 78.8125 74.5146637 C82.54308861 73.91231122 83.76358263 72.9938072 86 70 C86 69.34 86 68.68 86 68 C86.8971875 67.8453125 86.8971875 67.8453125 87.8125 67.6875 C90.52699492 66.83437303 91.36065268 66.34988596 93 64 C93.25461321 61.14772584 93.32733865 58.53431269 93.25 55.6875 C93.23614258 54.86241943 93.22228516 54.03733887 93.20800781 53.18725586 C93.1727571 51.40493343 93.12912868 49.62276152 93.078125 47.84082031 C92.99701192 44.89134589 92.95194551 41.94240386 92.90625 38.9921875 C92.85662086 37.01556186 92.8045875 35.03899493 92.75 33.0625 C92.73614258 32.12172607 92.72228516 31.18095215 92.70800781 30.21166992 C92.56139259 25.00817386 92.56139259 25.00817386 90.203125 20.49609375 C85.49399072 17.29822419 81.29169374 16.46082614 75.66796875 15.81640625 C74.84717834 15.71623199 74.02638794 15.61605774 73.1807251 15.5128479 C70.51709522 15.18918798 67.8523732 14.87574246 65.1875 14.5625 C63.3626202 14.34296207 61.53783168 14.12266416 59.71313477 13.90161133 C56.99550103 13.57240955 54.27782608 13.24365063 51.55979919 12.91770935 C43.61683119 11.9635358 35.68712055 10.92347292 27.7644043 9.81274414 C23.15507975 9.1890946 18.66023232 8.65546921 14 9 Z " fill="#F7F3F5" transform="translate(55,27)"/>
<path d="M0 0 C0.98373093 4.15596449 1.18180582 8.12616249 1.28125 12.390625 C1.30886414 13.44669952 1.30886414 13.44669952 1.33703613 14.52410889 C1.39545695 16.76599228 1.44835323 19.00795101 1.5 21.25 C0.61428715 37.91182418 0.61428715 37.91182418 7 52 C10.13399604 52.7600838 10.13399604 52.7600838 13.69628906 52.65942383 C14.36011597 52.66990753 15.02394287 52.68039124 15.70788574 52.69119263 C17.89427609 52.71991272 20.07908006 52.71365583 22.265625 52.70703125 C23.78450502 52.72014836 25.3033676 52.73545264 26.82220459 52.75285339 C30.81385493 52.79271587 34.8050491 52.80289454 38.796875 52.80688477 C42.87253671 52.81621401 46.94793014 52.85362612 51.0234375 52.88867188 C59.01562991 52.95326022 67.00755881 52.9864899 75 53 C73.25 57.875 73.25 57.875 71 59 C68.74450858 59.1177881 66.48549857 59.1698667 64.22705078 59.19287109 C63.18286484 59.20513733 63.18286484 59.20513733 62.11758423 59.21765137 C59.8101691 59.24249743 57.50281538 59.25901803 55.1953125 59.2734375 C54.40779476 59.27876118 53.62027702 59.28408485 52.80889511 59.28956985 C48.64164961 59.31629632 44.47443403 59.33567394 40.30712891 59.35009766 C36.00033642 59.36675679 31.69430752 59.41154554 27.38780403 59.4624691 C24.07810574 59.49610117 20.76858975 59.50767047 17.45873642 59.51332474 C15.87106353 59.52004706 14.28340305 59.53529476 12.69589615 59.55921555 C10.47387396 59.59079045 8.25392533 59.59091714 6.03173828 59.58349609 C4.13550217 59.59562637 4.13550217 59.59562637 2.20095825 59.60800171 C-1 59 -1 59 -3.39962769 56.68592834 C-5.43918656 53.26290674 -5.69910455 50.23382084 -5.828125 46.34765625 C-5.8668573 45.61107285 -5.9055896 44.87448944 -5.94549561 44.11558533 C-6.06440782 41.7650221 -6.15719746 39.41422276 -6.25 37.0625 C-6.32649655 35.51749664 -6.40460768 33.97257232 -6.484375 32.42773438 C-6.70567064 27.9530343 -6.87004464 23.47823609 -7 19 C-7.02054443 18.31008972 -7.04108887 17.62017944 -7.06225586 16.90936279 C-7.11286987 14.98025768 -7.14287799 13.05064486 -7.171875 11.12109375 C-7.19652832 9.48611938 -7.19652832 9.48611938 -7.22167969 7.81811523 C-6.99828262 4.97816776 -6.56475615 3.3591339 -5 1 C-3 0 -3 0 0 0 Z " fill="#F89520" transform="translate(66,42)"/>
<path d="M0 0 C0 1.65 0 3.3 0 5 C-4.67382259 6.23690075 -9.34880142 7.46857441 -14.02734375 8.6875 C-16.84540012 9.42388717 -19.64391158 10.18710711 -22.44140625 11 C-36.34174894 14.93370242 -47.78038691 12.80713203 -61 8 C-61 7.34 -61 6.68 -61 6 C-28.63637573 1.99679332 -28.63637573 1.99679332 -16.4375 0.75 C-15.67985352 0.67023926 -14.92220703 0.59047852 -14.14160156 0.50830078 C-9.40667471 0.04170467 -4.75800778 -0.06422508 0 0 Z " fill="#0F85DA" transform="translate(141,110)"/>
<path d="M0 0 C1.65 0 3.3 0 5 0 C5 0.66 5 1.32 5 2 C5.99 1.34 6.98 0.68 8 0 C9.9375 -0.30078125 9.9375 -0.30078125 12 -0.3125 C12.680625 -0.32925781 13.36125 -0.34601563 14.0625 -0.36328125 C16 0 16 0 17.72265625 1.1171875 C19.59916624 3.88317471 19.43374256 6.12719279 19.4375 9.4375 C19.46650391 11.13712891 19.46650391 11.13712891 19.49609375 12.87109375 C18.90366324 16.60760431 18.02403381 17.78703032 15 20 C9.02941176 20.51470588 9.02941176 20.51470588 6 19 C6 21.64 6 24.28 6 27 C4.02 27 2.04 27 0 27 C0 18.09 0 9.18 0 0 Z " fill="#1186DA" transform="translate(171,153)"/>
<path d="M0 0 C1.66611905 -0.042721 3.33382885 -0.04063832 5 0 C6.73605513 1.73605513 6.65611982 4.20549496 7.0625 6.5625 C7.23910156 7.57441406 7.41570312 8.58632812 7.59765625 9.62890625 C7.73042969 10.41136719 7.86320312 11.19382813 8 12 C8.33 12 8.66 12 9 12 C9.13277344 11.21753906 9.26554687 10.43507812 9.40234375 9.62890625 C9.57894531 8.61699219 9.75554687 7.60507813 9.9375 6.5625 C10.11152344 5.55316406 10.28554687 4.54382813 10.46484375 3.50390625 C11 1 11 1 12 0 C14.9375 -0.1875 14.9375 -0.1875 18 0 C20.77042109 2.77042109 20.39796106 4.76533805 20.625 8.625 C20.69976562 9.81351563 20.77453125 11.00203125 20.8515625 12.2265625 C20.92503906 13.59941406 20.92503906 13.59941406 21 15 C21.66 15 22.32 15 23 15 C23.09087891 13.87851563 23.09087891 13.87851563 23.18359375 12.734375 C23.26738281 11.74953125 23.35117188 10.7646875 23.4375 9.75 C23.51871094 8.77546875 23.59992188 7.8009375 23.68359375 6.796875 C23.95074584 4.43538247 24.35371968 2.28098935 25 0 C26.98 0 28.96 0 31 0 C29.83795007 6.54849313 28.26616615 12.74538144 26 19 C23.36 19 20.72 19 18 19 C17.01 15.04 16.02 11.08 15 7 C14.566875 9.660625 14.566875 9.660625 14.125 12.375 C13.25 17.75 13.25 17.75 11 20 C8 20.3125 8 20.3125 5 20 C2.94550007 16.9182501 2.25524191 14.6904243 1.375 11.125 C0.98441406 9.58199219 0.98441406 9.58199219 0.5859375 8.0078125 C0.04698884 5.24120939 -0.11394368 2.80715804 0 0 Z " fill="#1789DB" transform="translate(116,153)"/>
<path d="M0 0 C3.1875 2 3.1875 2 5 5 C5.85228415 9.59492326 5.29321085 13.89635952 3 18 C-1.26341649 20.84227766 -4.99990449 20.73249807 -10 20 C-13.125 18.1875 -13.125 18.1875 -15 15 C-15.79794596 10.14043723 -15.87115129 5.78378597 -13.6875 1.3125 C-9.22253853 -0.86806258 -4.85284224 -0.81119996 0 0 Z " fill="#1186DA" transform="translate(89,153)"/>
<path d="M0 0 C1.98 0 3.96 0 6 0 C6.33 2.97 6.66 5.94 7 9 C7.66 8.67 8.32 8.34 9 8 C10.875 7.83203125 10.875 7.83203125 13 7.8125 C13.70125 7.79832031 14.4025 7.78414062 15.125 7.76953125 C17 8 17 8 19 10 C19.22705078 11.87939453 19.22705078 11.87939453 19.1953125 14.1328125 C19.18886719 14.93847656 19.18242188 15.74414062 19.17578125 16.57421875 C19.15902344 17.41597656 19.14226562 18.25773437 19.125 19.125 C19.11597656 19.97449219 19.10695313 20.82398438 19.09765625 21.69921875 C19.07405647 23.79959884 19.03818483 25.89983444 19 28 C17.02 28 15.04 28 13 28 C13 23.05 13 18.1 13 13 C11.02 13.33 9.04 13.66 7 14 C6.67 18.62 6.34 23.24 6 28 C4.02 28 2.04 28 0 28 C0 18.76 0 9.52 0 0 Z " fill="#198ADC" transform="translate(52,145)"/>
<path d="M0 0 C2.10353495 -0.0810206 4.20795952 -0.13919907 6.3125 -0.1875 C7.48425781 -0.22230469 8.65601563 -0.25710937 9.86328125 -0.29296875 C13 0 13 0 14.67773438 1.26757812 C16.28628107 3.37508318 16.35212709 4.38903255 16.29296875 7.01171875 C16.28330078 7.76904297 16.27363281 8.52636719 16.26367188 9.30664062 C16.23853516 10.09232422 16.21339844 10.87800781 16.1875 11.6875 C16.16719727 12.88342773 16.16719727 12.88342773 16.14648438 14.10351562 C16.11117089 16.06929967 16.05736447 18.03473582 16 20 C14.35 20 12.7 20 11 20 C10.67 19.34 10.34 18.68 10 18 C9.01 18.66 8.02 19.32 7 20 C3.5 20.375 3.5 20.375 0 20 C-2.65016543 17.77728061 -2.94940209 16.3541854 -3.4375 12.9375 C-3 10 -3 10 -1.5625 8.125 C2.25144551 6.4505849 5.89579485 6.76321893 10 7 C9.67 6.34 9.34 5.68 9 5 C6.64400765 4.53248212 6.64400765 4.53248212 3.9375 4.375 C3.01839844 4.30023438 2.09929687 4.22546875 1.15234375 4.1484375 C0.44207031 4.09945312 -0.26820313 4.05046875 -1 4 C-0.67 2.68 -0.34 1.36 0 0 Z " fill="#198ADC" transform="translate(151,153)"/>
<path d="M0 0 C2.6875 1.6875 2.6875 1.6875 4 4 C4.5 6.5625 4.5 6.5625 4 9 C2.5625 10.8125 2.5625 10.8125 0 12 C-3.01771016 12.2389237 -5.98006841 12.17422682 -9 12 C-8.67 12.66 -8.34 13.32 -8 14 C-5.41394668 14.4683265 -5.41394668 14.4683265 -2.4375 14.625 C-1.42558594 14.69976562 -0.41367187 14.77453125 0.62890625 14.8515625 C1.80259766 14.92503906 1.80259766 14.92503906 3 15 C3 16.32 3 17.64 3 19 C-0.97707143 20.98853571 -5.67462935 20.51729937 -10 20 C-13.1875 18.1875 -13.1875 18.1875 -15 15 C-15.79130082 10.13709677 -15.8726994 5.78695591 -13.6875 1.3125 C-9.25297168 -0.85319988 -4.82636683 -0.72505359 0 0 Z " fill="#198ADC" transform="translate(26,153)"/>
<path d="M0 0 C1.38294718 0.01329757 2.76582404 0.03715018 4.1484375 0.0703125 C4.85484375 0.07933594 5.56125 0.08835938 6.2890625 0.09765625 C8.03399848 0.12123647 9.77876045 0.15710789 11.5234375 0.1953125 C11.5234375 1.5153125 11.5234375 2.8353125 11.5234375 4.1953125 C7.8934375 4.1953125 4.2634375 4.1953125 0.5234375 4.1953125 C0.5234375 5.1853125 0.5234375 6.1753125 0.5234375 7.1953125 C2.3796875 7.35 2.3796875 7.35 4.2734375 7.5078125 C7.77923199 7.96779263 10.17392183 8.3563144 12.5234375 11.1953125 C13.0234375 14.1953125 13.0234375 14.1953125 12.5234375 17.1953125 C10.12183615 19.69600905 8.77428697 20.17259063 5.2890625 20.48828125 C4.12890625 20.45347656 2.96875 20.41867188 1.7734375 20.3828125 C0.60296875 20.35574219 -0.5675 20.32867187 -1.7734375 20.30078125 C-2.66546875 20.26597656 -3.5575 20.23117188 -4.4765625 20.1953125 C-4.8065625 18.8753125 -5.1365625 17.5553125 -5.4765625 16.1953125 C-1.5165625 16.1953125 2.4434375 16.1953125 6.5234375 16.1953125 C6.5234375 15.2053125 6.5234375 14.2153125 6.5234375 13.1953125 C5.60111328 13.03095703 5.60111328 13.03095703 4.66015625 12.86328125 C3.85191406 12.70472656 3.04367188 12.54617187 2.2109375 12.3828125 C1.01017578 12.15658203 1.01017578 12.15658203 -0.21484375 11.92578125 C-2.76412659 11.10243774 -3.86579889 10.31905816 -5.4765625 8.1953125 C-5.7890625 5.1328125 -5.7890625 5.1328125 -5.4765625 2.1953125 C-3.4765625 0.1953125 -3.4765625 0.1953125 0 0 Z " fill="#1889DB" transform="translate(101.4765625,152.8046875)"/>
<path d="M0 0 C1.07765625 0.03609375 2.1553125 0.0721875 3.265625 0.109375 C4.49539062 0.17898437 4.49539062 0.17898437 5.75 0.25 C5.75 1.57 5.75 2.89 5.75 4.25 C3.69921875 4.47786458 1.6484375 4.70572917 -0.40234375 4.93359375 C-2.26140229 5.06886614 -2.26140229 5.06886614 -3.25 6.25 C-3.32179964 7.76928038 -3.33392007 9.29167482 -3.3125 10.8125 C-3.291875 12.276875 -3.27125 13.74125 -3.25 15.25 C0.05 15.25 3.35 15.25 6.75 15.25 C6.75 16.57 6.75 17.89 6.75 19.25 C2.66559852 20.61146716 -0.98391282 20.87011425 -5.25 20.25 C-8.3125 18.4375 -8.3125 18.4375 -10.25 15.25 C-11.05254049 10.40609493 -11.52935928 6.0581206 -8.60546875 1.92578125 C-5.54927521 -0.2485256 -3.71148107 -0.16136874 0 0 Z " fill="#1488DB" transform="translate(42.25,152.75)"/>
<path d="M0 0 C2.10353495 -0.0810206 4.20795952 -0.13919907 6.3125 -0.1875 C7.48425781 -0.22230469 8.65601563 -0.25710937 9.86328125 -0.29296875 C13 0 13 0 14.90625 1 C16.67520732 4.23466482 16.30953066 7.60480506 16.1875 11.1875 C16.16719727 12.31188477 16.16719727 12.31188477 16.14648438 13.45898438 C16.11118539 15.30629767 16.05737917 17.15324066 16 19 C14.68 19 13.36 19 12 19 C12 18.01 12 17.02 12 16 C11.34 15.67 10.68 15.34 10 15 C10.33 13.68 10.66 12.36 11 11 C8.69 11 6.38 11 4 11 C4 10.67 4 10.34 4 10 C5.65 9.67 7.3 9.34 9 9 C9 7.68 9 6.36 9 5 C5.7 4.67 2.4 4.34 -1 4 C-0.67 2.68 -0.34 1.36 0 0 Z " fill="#0E85DA" transform="translate(151,153)"/>
<path d="M0 0 C0 0.66 0 1.32 0 2 C-18.9936796 5.31244134 -37.7842318 6.87798084 -57 5 C-57 4.67 -57 4.34 -57 4 C-50.00772446 3.4263836 -43.01509913 2.85718634 -36.0222168 2.29101562 C-33.64485588 2.09801595 -31.26757593 1.90401614 -28.89038086 1.70898438 C-25.46749489 1.42833779 -22.04433097 1.15132509 -18.62109375 0.875 C-17.0347538 0.74375732 -17.0347538 0.74375732 -15.41636658 0.60986328 C-10.25814105 0.19698717 -5.17473013 -0.10202795 0 0 Z " fill="#BBDCF4" transform="translate(140,108)"/>
<path d="M0 0 C2.5625 0.1875 2.5625 0.1875 4.5625 2.1875 C4.87787716 6.52393601 5.01147847 8.51403229 2.5625 12.1875 C-2.3125 11.3125 -2.3125 11.3125 -3.4375 10.1875 C-3.5354057 8.69011876 -3.56724864 7.18807108 -3.5625 5.6875 C-3.56507812 4.8728125 -3.56765625 4.058125 -3.5703125 3.21875 C-3.37440673 0.2225441 -3.00673063 0.23128697 0 0 Z " fill="#ECF5FC" transform="translate(83.4375,156.8125)"/>
<path d="M0 0 C0.02688151 1.64574566 0.04634123 3.29161413 0.0625 4.9375 C0.07410156 5.85402344 0.08570313 6.77054688 0.09765625 7.71484375 C0 10 0 10 -1 11 C-2.99958364 11.04080783 -5.00045254 11.04254356 -7 11 C-7 7.37 -7 3.74 -7 0 C-4.3333581 -1.33332095 -2.83319697 -0.67102033 0 0 Z " fill="#F1F8FC" transform="translate(184,158)"/>
<path d="M0 0 C-7.72772107 0.13690844 -15.30881404 -0.24833087 -23 -1 C-23 -1.33 -23 -1.66 -23 -2 C-4.65581395 -3.88837209 -4.65581395 -3.88837209 0 0 Z " fill="#BEDEF5" transform="translate(106,114)"/>
<path d="M0 0 C1.08667969 0.02707031 2.17335938 0.05414063 3.29296875 0.08203125 C4.54013672 0.13423828 4.54013672 0.13423828 5.8125 0.1875 C5.8125 0.8475 5.8125 1.5075 5.8125 2.1875 C0.73163204 3.03431133 -4.03578377 3.27788099 -9.1875 3.1875 C-6.54246503 -0.34849411 -4.24021315 -0.13678107 0 0 Z " fill="#EDF6FC" transform="translate(89.1875,112.8125)"/>
<path d="M0 0 C2.31 0 4.62 0 7 0 C6.67 1.32 6.34 2.64 6 4 C4.35 4.33 2.7 4.66 1 5 C0.67 3.35 0.34 1.7 0 0 Z " fill="#E4F1FB" transform="translate(154,164)"/>
<path d="M0 0 C1.65 0 3.3 0 5 0 C5.33 1.32 5.66 2.64 6 4 C3.69 4 1.38 4 -1 4 C-0.67 2.68 -0.34 1.36 0 0 Z " fill="#F2F8FD" transform="translate(18,157)"/>
<path d="M0 0 C0 0.33 0 0.66 0 1 C-0.93972656 1.18175781 -0.93972656 1.18175781 -1.8984375 1.3671875 C-2.71570313 1.53476563 -3.53296875 1.70234375 -4.375 1.875 C-5.18710938 2.03742188 -5.99921875 2.19984375 -6.8359375 2.3671875 C-9.18673923 2.86658932 -9.18673923 2.86658932 -11 5 C-11.69748583 6.31747324 -12.36959957 7.64914193 -13 9 C-13.47792208 3.62337662 -13.47792208 3.62337662 -11.5625 1.125 C-7.74855449 -0.5494151 -4.10420515 -0.23678107 0 0 Z " fill="#64B0E7" transform="translate(161,160)"/>
<path d="M0 0 C0.33 0 0.66 0 1 0 C1.33 2.64 1.66 5.28 2 8 C0.68 8.99 -0.64 9.98 -2 11 C-1.125 3.375 -1.125 3.375 0 0 Z " fill="#D0E7F8" transform="translate(131,157)"/>
<path d="M0 0 C2.0625 2.125 2.0625 2.125 4 5 C3.75 8.3125 3.75 8.3125 3 11 C0.87953208 7.46588679 0.46800711 4.05606165 0 0 Z " fill="#B9DBF4" transform="translate(122,158)"/>
</svg>
